<?xml version="1.0" encoding="iso-8859-1"?>
<!-- Generator: Adobe Illustrator 16.0.0, SVG Export Plug-In . SVG Version: 6.00 Build 0)  -->
<!DOCTYPE svg PUBLIC "-//W3C//DTD SVG 1.1//EN" "http://www.w3.org/Graphics/SVG/1.1/DTD/svg11.dtd">
<svg xmlns="http://www.w3.org/2000/svg" xmlns:xlink="http://www.w3.org/1999/xlink" version="1.1" id="Capa_1" x="0px" y="0px" width="512px" height="512px" viewBox="0 0 450.363 450.363" style="enable-background:new 0 0 450.363 450.363;" xml:space="preserve">
<g>
	<path d="M445.363,244.241h-2.287c-3.066-17.074-9.529-31.606-12.184-34.902c-2.424-3.01-5.91-4.977-9.74-5.485l-92.863-16.828   c0,0-52.395-50.038-83.469-50.038l-104.713-0.012c-20.302,0-37.269,15.47-56.915,33.382c-9.257,8.44-19.478,17.729-30.751,25.99   l-41.981,5.583C4.395,203.866,0,209.542,0,216.249v48.098c0,8.301,6.729,15.031,15.03,15.031h40.208   c7.529,19.854,26.738,34.01,49.199,34.01c22.462,0,41.671-14.154,49.2-34.01h144.847c7.531,19.854,26.738,34.01,49.201,34.01   c22.461,0,41.67-14.154,49.199-34.01l48.479-0.028c2.764,0,5-2.239,5-5v-25.106C450.363,246.479,448.127,244.241,445.363,244.241z    M104.437,280.821c-11.05,0-20.041-8.99-20.041-20.041s8.991-20.041,20.041-20.041c11.051,0,20.041,8.99,20.041,20.041   S115.488,280.821,104.437,280.821z M347.686,280.821c-11.051,0-20.041-8.99-20.041-20.041s8.99-20.041,20.041-20.041   s20.041,8.99,20.041,20.041S358.736,280.821,347.686,280.821z" fill="#006DF0"/>
</g>
<g>
</g>
<g>
</g>
<g>
</g>
<g>
</g>
<g>
</g>
<g>
</g>
<g>
</g>
<g>
</g>
<g>
</g>
<g>
</g>
<g>
</g>
<g>
</g>
<g>
</g>
<g>
</g>
<g>
</g>
</svg>
